{"title":"London Boulevard - 2010 (No Cinavia) 720p","uid":11495561,"size":4112219111,"categoryP":"video","categoryS":"hd___movies","magnet":"?xt=urn:btih:7705a7a4ab38f2ca80318d099b806b2be70ff0b4&amp;dn=London+Boulevard+-+2010+%28No+Cinavia%29+720p&amp;tr=udp%3A%2F%2Ftracker.openbittorrent.com%3A80&amp;tr=udp%3A%2F%2Fopen.demonii.com%3A1337&amp;tr=udp%3A%2F%2Ftracker.coppersurfer.tk%3A6969&amp;tr=udp%3A%2F%2Fexodus.desync.com%3A6969","seeders":3,"leechers":0,"uploader":"AlienMethod","files":-1,"time":1416289593,"description":"x264/mp4\nCinavia Removed/CinExHD\n2-Channel AAC@128kbps (audio 1)\n6-Channel AC3@640kbps (audio 2)\nEnglish Subs Incl.\n\n&quot;An ex-con with a reputation tries to go straight by working as a handy man for a reclusive actress, but this is unfortunately not the wish of London's underground crime lord.&quot;\n\n\nVideo\nID : 1\nFormat : AVC\nFormat/Info : Advanced Video Codec\nFormat profile : &lt;a class=&quot;__cf_email__&quot; href=&quot;/cdn-cgi/l/email-protection&quot; data-cfemail=&quot;eea6878986aea2dac0df&quot;&gt;[email&amp;#160;protected]&lt;/a&gt;&lt;script cf-hash='f9e31' type=&quot;text/javascript&quot;&gt;\n/* &lt;![CDATA[ */!function(){try{var t=&quot;currentScript&quot;in document?document.currentScript:function(){for(var t=document.getElementsByTagName(&quot;script&quot;),e=t.length;e--;)if(t[e].getAttribute(&quot;cf-hash&quot;))return t[e]}();if(t&amp;&amp;t.previousSibling){var e,r,n,i,c=t.previousSibling,a=c.getAttribute(&quot;data-cfemail&quot;);if(a){for(e=&quot;&quot;,r=parseInt(a.substr(0,2),16),n=2;a.length-n;n+=2)i=parseInt(a.substr(n,2),16)^r,e+=String.fromCharCode(i);e=document.createTextNode(e),c.parentNode.replaceChild(e,c)}}}catch(u){}}();/* ]]&gt; */&lt;/script&gt;\nFormat settings, CABAC : Yes\nFormat settings, ReFrames : 5 frames\nCodec ID : avc1\nCodec ID/Info : Advanced Video Coding\nDuration : 1h 43mn\nBit rate : 4 564 Kbps\nMaximum bit rate : 19.6 Mbps\nWidth : 1 280 pixels\nHeight : 696 pixels\nDisplay aspect ratio : 1.85:1\nFrame rate mode : Constant\nFrame rate : 23.976 fps\nColor space : YUV\nChroma subsampling : 4:2:0\nBit depth : 8 bits\nScan type : Progressive\nBits/(Pixel*Frame) : 0.214\nStream size : 3.28 GiB (86%)\nTitle : London Boulevard (CinEx)_track1_und.h264\nWriting library : x264 core 114 r1913 5fd3dce\nEncoded date : UTC 2014-11-17 04:24:01\nTagged date : UTC 2014-11-17 04:24:20\n\nAudio #1\nID : 2\nFormat : AAC\nFormat/Info : Advanced Audio Codec\nFormat profile : LC\nCodec ID : 40\nDuration : 1h 43mn\nBit rate mode : Variable\nBit rate : 115 Kbps\nMaximum bit rate : 146 Kbps\nChannel(s) : 2 channels\nChannel positions : Front: L R\nSampling rate : 48.0 KHz\nCompression mode : Lossy\nStream size : 84.6 MiB (2%)\nTitle : London Boulevard (CinEx)_track2_und_Output.m4a\nEncoded date : UTC 2014-11-17 04:24:16\nTagged date : UTC 2014-11-17 04:24:20\n\nAudio #2\nID : 3\nFormat : AC-3\nFormat/Info : Audio Coding 3\nMode extension : CM (complete main)\nFormat settings, Endianness : Big\nCodec ID : ac-3\nDuration : 1h 43mn\nBit rate mode : Constant\nBit rate : 640 Kbps\nChannel(s) : 6 channels\nChannel positions : Front: L C R, Side: L R, LFE\nSampling rate : 48.0 KHz\nBit depth : 16 bits\nCompression mode : Lossy\nStream size : 472 MiB (12%)\nTitle : London Boulevard (CinEx)_track2_und.ac3\nEncoded date : UTC 2014-11-17 04:24:17\nTagged date : UTC 2014-11-17 04:24:20\n\nm/ AM m/","torrent":{"xt":"urn:btih:7705a7a4ab38f2ca80318d099b806b2be70ff0b4","amp;dn":"London+Boulevard+-+2010+%28No+Cinavia%29+720p","amp;tr":["udp%3A%2F%2Ftracker.openbittorrent.com%3A80","udp%3A%2F%2Fopen.demonii.com%3A1337","udp%3A%2F%2Ftracker.coppersurfer.tk%3A6969","udp%3A%2F%2Fexodus.desync.com%3A6969"],"infoHash":"7705a7a4ab38f2ca80318d099b806b2be70ff0b4","infoHashBuffer":{"type":"Buffer","data":[119,5,167,164,171,56,242,202,128,49,141,9,155,128,107,43,231,15,240,180]},"announce":[],"urlList":[]}}